#!OML:ASF C:\Vicon Data\Big\jianyuan-13\jianyuan\Session 1\Capture.male.ASF
:FULLY-SPECIFIED
:DEGREES
28
root -8.103162 16.736621 -22.241861 8.215038 9.651787 1.713001
lowerback -11.159287 -0.630800 -0.053426 
upperback 3.011399 -1.000459 1.507676 
thorax 9.537083 -0.548163 1.450365 
lowerneck 0.627251 -2.036043 5.737406 
upperneck 10.932094 -3.049080 -4.402698 
head 3.284150 -1.672032 -2.558089 
rclavicle 0.000000 0.000000 
rhumerus -44.164176 -21.899969 -71.434933 
rradius 33.514857 
rwrist 26.865319 
rhand -18.011136 -18.304484 
rfingers 0.000000 
rthumb 8.259614 -48.123003 
lclavicle 0.000000 0.000000 
lhumerus -38.442946 22.815220 78.538762 
lradius 33.503768 
lwrist -38.293744 
lhand -19.428842 1.160526 
lfingers 0.000000 
lthumb 6.891162 31.028323 
rfemur -41.784753 5.353057 15.113770 
rtibia 35.385638 
rfoot -2.790201 -4.900385 
rtoes -29.482825 
lfemur -1.386869 2.651088 -18.816923 
ltibia 45.356627 
lfoot -0.263447 3.257772 
ltoes -42.846368 
29
root -8.140695 16.757335 -22.100135 8.225856 9.811005 1.543637
lowerback -10.946514 -0.684623 0.128552 
upperback 3.016589 -1.102243 1.533830 
thorax 9.417971 -0.588471 1.357360 
lowerneck 0.659627 -2.005222 5.585244 
upperneck 10.938381 -3.027848 -4.130823 
head 3.285129 -1.658168 -2.436728 
rclavicle 0.000000 0.000000 
rhumerus -43.775810 -21.871915 -71.946424 
rradius 33.618895 
rwrist 26.713185 
rhand -18.150604 -18.320733 
rfingers 0.000000 
rthumb 8.124989 -48.144536 
lclavicle 0.000000 0.000000 
lhumerus -38.493718 22.967691 78.309339 
lradius 33.300494 
lwrist -39.181138 
lhand -19.013062 1.122085 
lfingers 0.000000 
lthumb 7.292534 30.976373 
rfemur -41.527226 5.209150 15.689470 
rtibia 35.863241 
rfoot -3.408463 -4.806937 
rtoes -29.408533 
lfemur -3.311906 3.139039 -18.211275 
ltibia 48.646677 
lfoot 1.558311 4.065462 
ltoes -42.005710 
30
root -8.176001 16.775652 -21.964232 8.212719 9.977061 1.376927
lowerback -10.749571 -0.710989 0.361468 
upperback 3.044757 -1.169296 1.512747 
thorax 9.329777 -0.607532 1.192181 
lowerneck 0.696093 -2.002322 5.514080 
upperneck 10.905855 -3.042854 -3.861454 
head 3.269375 -1.658144 -2.330955 
rclavicle 0.000000 0.000000 
rhumerus -43.400168 -21.806851 -72.536435 
rradius 33.779141 
rwrist 26.516060 
rhand -18.237086 -18.340556 
rfingers 0.000000 
rthumb 8.041554 -48.167556 
lclavicle 0.000000 0.000000 
lhumerus -38.430031 23.060668 78.063226 
lradius 32.965540 
lwrist -39.980702 
lhand -18.960245 0.929723 
lfingers 0.000000 
lthumb 7.343498 30.782287 
rfemur -41.186482 5.033403 16.227588 
rtibia 36.207346 
rfoot -4.025477 -4.629974 
rtoes -29.149648 
lfemur -5.257170 3.572252 -17.668683 
ltibia 51.857219 
lfoot 3.391473 5.065573 
ltoes -40.382905 
31
root -8.210828 16.796105 -21.831807 8.149813 10.100378 1.194296
lowerback -10.546878 -0.724555 0.548208 
upperback 3.097604 -1.220401 1.557874 
thorax 9.267227 -0.625033 1.127161 
lowerneck 0.685844 -1.992910 5.311089 
upperneck 10.908878 -3.043623 -3.652339 
head 3.275733 -1.658761 -2.223784 
rclavicle 0.000000 0.000000 
rhumerus -42.931106 -21.579636 -73.117693 
rradius 33.921357 
rwrist 26.294266 
rhand -18.250760 -18.468517 
rfingers 0.000000 
rthumb 8.028297 -48.296035 
lclavicle 0.000000 0.000000 
lhumerus -38.397140 23.407281 77.865702 
lradius 32.713509 
lwrist -41.033013 
lhand -18.880723 0.836869 
lfingers 0.000000 
lthumb 7.420265 30.686744 
rfemur -40.732475 5.030249 16.708797 
rtibia 36.420551 
rfoot -4.646210 -4.566707 
rtoes -28.963180 
lfemur -7.227928 3.990720 -17.158104 
ltibia 54.991815 
lfoot 5.277774 6.541555 
ltoes -37.815278 
32
root -8.245544 16.814721 -21.706930 8.072851 10.288397 0.948735
lowerback -10.378423 -0.689293 0.770684 
upperback 3.148807 -1.208055 1.577546 
thorax 9.220245 -0.608761 1.026355 
lowerneck 0.630401 -2.052159 5.389528 
upperneck 10.975293 -3.138983 -3.560404 
head 3.304822 -1.700375 -2.211870 
rclavicle 0.000000 0.000000 
rhumerus -42.516531 -21.504878 -73.646544 
rradius 34.005482 
rwrist 26.273216 
rhand -18.293393 -18.483850 
rfingers 0.000000 
rthumb 7.987133 -48.312950 
lclavicle 0.000000 0.000000 
lhumerus -38.297878 23.726092 77.612663 
lradius 32.434091 
lwrist -42.302883 
lhand -18.660801 0.580396 
lfingers 0.000000 
lthumb 7.632539 30.422679 
rfemur -40.271218 5.026635 17.231034 
rtibia 36.570572 
rfoot -5.227010 -4.571126 
rtoes -28.637305 
lfemur -9.223598 4.288444 -16.624536 
ltibia 58.008050 
lfoot 6.259750 7.798452 
ltoes -34.827717 
33
root -8.278724 16.833109 -21.587643 8.000379 10.441988 0.806304
lowerback -10.187559 -0.678708 0.866757 
upperback 3.200232 -1.209153 1.593773 
thorax 9.163138 -0.605878 0.990911 
lowerneck 0.642023 -2.069056 5.319582 
upperneck 10.989253 -3.170602 -3.449226 
head 3.307657 -1.715066 -2.162464 
rclavicle 0.000000 0.000000 
rhumerus -42.028729 -21.187521 -74.267387 
rradius 34.129690 
rwrist 26.016419 
rhand -18.292852 -18.522053 
rfingers 0.000000 
rthumb 7.987681 -48.351115 
lclavicle 0.000000 0.000000 
lhumerus -38.150636 23.841581 77.609254 
lradius 32.270804 
lwrist -42.379442 
lhand -18.694727 0.699491 
lfingers 0.000000 
lthumb 7.599829 30.542931 
rfemur -39.801730 4.915251 17.695423 
rtibia 36.694914 
rfoot -5.716692 -4.492197 
rtoes -28.759181 
lfemur -11.151445 4.577631 -16.247586 
ltibia 60.910933 
lfoot 5.878344 8.998667 
ltoes -31.042982 
34
root -8.311224 16.852823 -21.471332 7.872112 10.537646 0.673510
lowerback -9.990776 -0.639593 0.924339 
upperback 3.273739 -1.169544 1.628746 
thorax 9.127382 -0.586593 1.004393 
lowerneck 0.570892 -2.124756 5.246822 
upperneck 11.063414 -3.250368 -3.442063 
head 3.343432 -1.757834 -2.152227 
rclavicle 0.000000 0.000000 
rhumerus -41.519322 -21.071773 -74.725013 
rradius 34.129503 
rwrist 26.213655 
rhand -18.352164 -18.463637 
rfingers 0.000000 
rthumb 7.930469 -48.294909 
lclavicle 0.000000 0.000000 
lhumerus -38.009393 23.926955 77.674812 
lradius 32.164376 
lwrist -42.707802 
lhand -18.814381 0.868598 
lfingers 0.000000 
lthumb 7.484325 30.716173 
rfemur -39.286110 4.992893 18.066612 
rtibia 36.801761 
rfoot -6.251107 -4.510299 
rtoes -28.185036 
lfemur -12.969601 4.853036 -15.931952 
ltibia 63.718353 
lfoot 4.161260 9.752823 
ltoes -28.072040 
35
root -8.345972 16.872504 -21.357312 7.732506 10.617673 0.559522
lowerback -9.748673 -0.568501 0.992524 
upperback 3.319900 -1.079604 1.607390 
thorax 9.032997 -0.539655 0.960926 
lowerneck 0.421237 -2.157874 5.344039 
upperneck 11.249182 -3.308249 -3.493245 
head 3.432264 -1.786549 -2.197054 
rclavicle 0.000000 0.000000 
rhumerus -41.010568 -20.657294 -75.391563 
rradius 34.202953 
rwrist 25.813164 
rhand -18.395781 -18.423072 
rfingers 0.000000 
rthumb 7.888375 -48.255912 
lclavicle 0.000000 0.000000 
lhumerus -37.952609 24.299375 77.484791 
lradius 31.994150 
lwrist -43.345676 
lhand -18.900557 0.756309 
lfingers 0.000000 
lthumb 7.401137 30.606823 
rfemur -38.734840 5.065767 18.441121 
rtibia 36.851235 
rfoot -6.734986 -4.541336 
rtoes -27.856649 
lfemur -14.860390 5.216627 -15.668648 
ltibia 66.419401 
lfoot 2.202997 9.906448 
ltoes -27.896194 
